<svg
  height="512pt"
  viewBox="0 0 511 512"
  width="512pt"
  xmlns="http://www.w3.org/2000/svg"
>
<style>
.frame { fill: #6200EE }
</style>

  <path
class="frame"
    d="m497.753906 189.285156c-9.492187-9.496094-22.117187-14.726562-35.542968-14.726562-13.429688 0-26.050782 5.230468-35.542969 14.726562l-1.863281 1.859375 71.085937 71.089844 1.863281-1.863281c9.496094-9.492188 14.722656-22.117188 14.722656-35.542969 0-13.429687-5.226562-26.050781-14.722656-35.542969zm0 0"
  />
  <path
class="frame"
    d="m323.195312 85.808594c19.597657-19.597656 19.597657-51.484375 0-71.082032-9.496093-9.496093-22.117187-14.726562-35.542968-14.726562-13.402344 0-26.011719 5.214844-35.515625 14.691406l-1.890625 1.894532 71.085937 71.085937zm0 0"
  />
  <path
    d="m100.617188 361.980469c-3.316407-3.3125-7.742188-5.140625-12.464844-5.140625-4.726563 0-9.152344 1.828125-12.472656 5.144531l-24.933594 24.9375c-3.316406 3.3125-5.144532 7.742187-5.144532 12.46875 0 4.722656 1.824219 9.148437 5.144532 12.46875l49.871094 49.871094c3.316406 3.320312 7.746093 5.148437 12.46875 5.148437 4.726562 0 9.152343-1.828125 12.46875-5.144531l24.941406-24.941406c6.871094-6.871094 6.871094-18.058594-.003906-24.933594zm0 0"
  />
  <path
class="frame"
    d="m351.855469 264.097656c-13.820313 13.816406-32.195313 21.429688-51.738281 21.429688-19.542969 0-37.917969-7.609375-51.734376-21.429688-13.820312-13.820312-21.433593-32.191406-21.433593-51.738281 0-19.542969 7.613281-37.914063 21.433593-51.734375l51.734376-51.738281-71.085938-71.085938-51.636719 51.636719c-.050781.046875-.101562.097656-.148437.148438-.046875.042968-.089844.089843-.132813.132812-27.914062 27.996094-45.566406 65.011719-49.722656 104.257812-3.671875 34.695313 3.261719 69.910157 19.59375 100.433594l-37.472656 37.46875c4.5 2.257813 8.660156 5.230469 12.320312 8.890625l49.875 49.878907c3.707031 3.707031 6.660157 7.878906 8.886719 12.328124l37.472656-37.472656c25.128906 13.476563 53.257813 20.554688 82.058594 20.554688h.011719c46.386719 0 90.003906-18.066406 122.808593-50.871094l51.734376-51.734375-71.085938-71.089844zm0 0"
  />
  <path
class="frame"
    d="m29.53125 433.070312c-3.660156-3.660156-6.636719-7.816406-8.894531-12.316406l-5.4375 5.4375c-19.597657 19.597656-19.597657 51.488282 0 71.085938 9.496093 9.492187 22.117187 14.722656 35.546875 14.722656 13.425781 0 26.046875-5.230469 35.542968-14.722656l5.433594-5.4375c-4.5-2.257813-8.660156-5.238282-12.320312-8.898438zm0 0"
  />
  <path
    d="m297.117188 416.023438c-32.335938 23.402343-72.984376 32.1875-111.804688 24.65625l-3 3c-.453125.453124-.914062.890624-1.382812 1.316406-2.261719 4.703125-5.328126 9.113281-9.21875 13.007812l-8.207032 8.207032c16.109375 4.761718 32.65625 7.109374 49.125 7.109374 45.164063 0 89.738282-17.5625 123.03125-50.855468l11.957032-11.957032c-15.378907 3.65625-31.289063 5.550782-47.492188 5.550782-1.003906 0-2.003906-.023438-3.007812-.035156zm0 0"
  />
  <path
    d="m54.46875 340.773438c3.855469-3.859376 8.265625-6.964844 13.046875-9.261719.417969-.453125.84375-.90625 1.285156-1.351563l2.996094-2.996094c-7.53125-38.824218 1.257813-79.476562 24.664063-111.8125-.125-8.1875.234374-16.375 1.097656-24.53125.929687-8.800781 2.445312-17.503906 4.507812-26.058593l-12.054687 12.054687c-45.4375 45.4375-61.574219 111.882813-43.757813 172.167969zm0 0"
  />
</svg>
