<svg xmlns="http://www.w3.org/2000/svg" viewBox="0 0 100 100"><path fill="#ff5c39" d="M50 0C22.385 0 0 22.388 0 50c0 .28.016.554.02.83l22.4-13.125L48.74 52.91v31.064L29.154 95.446A49.8 49.8 0 0050.001 100c27.6 0 50-22.385 50-50S77.61 0 50 0z"/><linearGradient id="a" gradientUnits="userSpaceOnUse" x1="10.547" y1="81.237" x2="43.812" y2="47.972"><stop offset="0" stop-color="#ff5c39"/><stop offset=".8" stop-color="#485cc7"/></linearGradient><path fill="url(#a)" d="M22.42 37.705L.02 50.83c.324 19.815 12.17 36.818 29.134 44.617L48.74 83.974V52.9L22.42 37.705z"/><path fill="#fff" d="M22.42 37.705L48.74 52.91v31.065l44.78-58.637z"/></svg>
