<svg viewPort="0 0 32 32" version="1.1" id="Layer_1" xmlns="http://www.w3.org/2000/svg" xmlns:xlink="http://www.w3.org/1999/xlink" x="0px" y="0px"
	 width="32px" height="32px" viewBox="0 0 100 100" enable-background="new 0 0 100 100" xml:space="preserve">
<path fill="#FFFFFF" d="M50.001,0c-27.616,0-50,22.388-50,50c0,0.28,0.015,0.554,0.021,0.829L22.42,37.705l26.32,15.204v31.064
	L29.154,95.446C35.5,98.362,42.559,100,50.001,100C77.611,100,100,77.615,100,50C100,22.388,77.611,0,50.001,0z"/>
<linearGradient id="SVGID_1_" gradientUnits="userSpaceOnUse" x1="10.5469" y1="81.2363" x2="43.8121" y2="47.9711">
	<stop  offset="0.2" style="stop-color:#485CC7"/>
	<stop  offset="1" style="stop-color:#FFFFFF"/>
</linearGradient>
<path fill="url(#SVGID_1_)" d="M22.42,37.705L0.021,50.829c0.324,19.815,12.168,36.818,29.133,44.617L48.74,83.974V52.9
	L22.42,37.705z"/>
<polygon fill="#485CC7" points="22.42,37.705 48.74,52.909 48.74,83.974 93.52,25.338 "/>
</svg>
