<svg data-name="Layer 2" xmlns="http://www.w3.org/2000/svg" viewBox="0 0 44 44">
  <path d="M31.4 6.3a60.2 60.2 0 0 1-6.6-1.1 43.6 43.6 0 0 1-8.3-2.9 43.3 43.3 0 0 1-14.2 4c-.2 0-.2 0-.2.2V27c0 2.2.6 4.1 1.8 5.9 1.3 2 3 3.4 4.9 4.8a34.8 34.8 0 0 0 8.2 4c2.6-1 5.1-2.2 7.5-3.8.2-.2.5-.3.8-.2.5 0 .8.3.9.8 0 .4 0 .8-.5 1L23.5 41c-2 1.1-4 2.1-6.2 2.9h-1c-3.5-1.3-6.8-3-9.8-5.3-2-1.5-3.6-3.3-4.9-5.4-1-1.9-1.6-4-1.6-6.1V5.3c0-.7.4-1 1-1.1 1 0 1.8 0 2.6-.2A41.1 41.1 0 0 0 16.2.1h1.2a41 41 0 0 0 15 4.1c.7 0 1.1.4 1.1 1.2v14.4c0 .8-.5 1.3-1.2 1.1-.5 0-.9-.5-.9-1V6.3Z"/>
  <path d="M12.5 21.4a6.3 6.3 0 0 1 0-9.3 6.3 6.3 0 0 1 8.6 9.2l1.6 1.1a6 6 0 0 1 2.4 5v1.8c0 .8-.4 1.2-1.1 1.2H9.6c-.7 0-1.3-.4-1.2-1.2v-1.9c0-2.2 1-4 2.8-5.2l1.3-.7ZM23 28.3v-1.6c-.4-2-2.3-3.6-4.4-3.7H15a4 4 0 0 0-2.4.8 4.4 4.4 0 0 0-2 4.5h12.6Zm-6.3-7.4a4.2 4.2 0 1 0-4.2-4.2c0 2.4 1.8 4.2 4.2 4.2Zm8.5 10.5a9.4 9.4 0 1 1 18.8 0 9.4 9.4 0 0 1-18.8 0Zm9.4-7.3a7.3 7.3 0 1 0 0 14.7 7.3 7.3 0 1 0 0-14.7Z"/>
  <path d="M33.6 33.2c0-.1 0-.2.2-.3l4.2-4.2c.3-.3.6-.5 1-.4.4.1.7.3.8.7.1.4 0 .8-.3 1.1l-3 3-2.1 2.1c-.6.6-1.2.6-1.7 0l-3-3c-.6-.6-.4-1.5.4-1.8.4 0 .8 0 1 .3l2.2 2.2.3.3Z"/>
</svg>
